<svg width="21" height="16" viewBox="0 0 21 16" fill="none" xmlns="http://www.w3.org/2000/svg">
<path d="M20.7692 13.1923C20.7692 13.8043 20.5261 14.3913 20.0933 14.8241C19.6605 15.2569 19.0736 15.5 18.4615 15.5H2.30769C1.69565 15.5 1.10868 15.2569 0.675907 14.8241C0.243131 14.3913 0 13.8043 0 13.1923V10.8846H20.7692V13.1923Z" fill="#CE2028"/>
<path d="M0 5.11539H20.7692V10.8846H0V5.11539Z" fill="#22408C"/>
<path d="M18.4615 0.5H2.30769C1.69565 0.5 1.10868 0.743131 0.675907 1.17591C0.243131 1.60868 0 2.19565 0 2.80769L0 5.11538H20.7692V2.80769C20.7692 2.19565 20.5261 1.60868 20.0933 1.17591C19.6605 0.743131 19.0736 0.5 18.4615 0.5Z" fill="#EEEEEE"/>
</svg>
